HIERARCHY
ROOT Hips
{
	OFFSET 193.743393 91.357132 495.993408
	CHANNELS 6 Xposition Yposition Zposition Zrotation Yrotation Xrotation 
	JOINT LeftUpLeg
	{
		OFFSET 0.103458 1.857834 10.548510
		CHANNELS 3 Zrotation Yrotation Xrotation
		JOINT LeftLeg
		{
			OFFSET 43.500004 -0.000038 -0.000006
			CHANNELS 3 Zrotation Yrotation Xrotation
			JOINT LeftFoot
			{
				OFFSET 42.372192 0.000015 -0.000002
				CHANNELS 3 Zrotation Yrotation Xrotation
				JOINT LeftToe
				{
					OFFSET 17.300009 0.000003 -0.000006
					CHANNELS 3 Zrotation Yrotation Xrotation
					End Site
					{
						OFFSET 0.000000 0.000000 0.000000
					}
				}
			}
		}
	}
	JOINT RightUpLeg
	{
		OFFSET 0.103463 1.857841 -10.548498
		CHANNELS 3 Zrotation Yrotation Xrotation
		JOINT RightLeg
		{
			OFFSET 43.500042 -0.000046 0.000025
			CHANNELS 3 Zrotation Yrotation Xrotation
			JOINT RightFoot
			{
				OFFSET 42.372261 -0.000008 -0.000003
				CHANNELS 3 Zrotation Yrotation Xrotation
				JOINT RightToe
				{
					OFFSET 17.300001 -0.000003 0.000011
					CHANNELS 3 Zrotation Yrotation Xrotation
					End Site
					{
						OFFSET 0.000000 0.000000 0.000000
					}
				}
			}
		}
	}
	JOINT Spine
	{
		OFFSET 6.901968 -2.603734 0.000007
		CHANNELS 3 Zrotation Yrotation Xrotation
		JOINT Spine1
		{
			OFFSET 12.588101 0.000000 -0.000008
			CHANNELS 3 Zrotation Yrotation Xrotation
			JOINT Spine2
			{
				OFFSET 12.343197 0.000010 -0.000007
				CHANNELS 3 Zrotation Yrotation Xrotation
				JOINT Neck
				{
					OFFSET 25.832905 -0.000008 0.000010
					CHANNELS 3 Zrotation Yrotation Xrotation
					JOINT Head
					{
						OFFSET 11.766598 -0.000002 -0.000010
						CHANNELS 3 Zrotation Yrotation Xrotation
						End Site
						{
							OFFSET 0.000000 0.000000 0.000000
						}
					}
				}
				JOINT LeftShoulder
				{
					OFFSET 19.745899 -1.480373 6.000105
					CHANNELS 3 Zrotation Yrotation Xrotation
					JOINT LeftArm
					{
						OFFSET 11.284138 -0.000004 -0.000017
						CHANNELS 3 Zrotation Yrotation Xrotation
						JOINT LeftForeArm
						{
							OFFSET 33.000050 0.000013 0.000033
							CHANNELS 3 Zrotation Yrotation Xrotation
							JOINT LeftHand
							{
								OFFSET 25.200001 -0.000009 -0.000001
								CHANNELS 3 Zrotation Yrotation Xrotation
								End Site
								{
									OFFSET 0.000000 0.000000 0.000000
								}
							}
						}
					}
				}
				JOINT RightShoulder
				{
					OFFSET 19.746101 -1.480377 -6.000072
					CHANNELS 3 Zrotation Yrotation Xrotation
					JOINT RightArm
					{
						OFFSET 11.284133 -0.000004 -0.000014
						CHANNELS 3 Zrotation Yrotation Xrotation
						JOINT RightForeArm
						{
							OFFSET 33.000099 0.000009 0.000023
							CHANNELS 3 Zrotation Yrotation Xrotation
							JOINT RightHand
							{
								OFFSET 25.199770 0.000143 0.000407
								CHANNELS 3 Zrotation Yrotation Xrotation
								End Site
								{
									OFFSET 0.000000 0.000000 0.000000
								}
							}
						}
					}
				}
			}
		}
	}
}
MOTION
Frames: 8
Frame Time: 0.033333
278.356293 89.4133 447.491486 90.416132 1.859175 -0.303528 169.897964 4.602294 166.78822 -29.388559 0.816514 -6.936946 90.225665 4.844223 1.2673 21.454555 0.003091 0.0 151.759085 3.091095 178.744685 -63.574499 -4.870884 7.734848 80.127285 -2.418778 11.99527 21.45456 -0.003108 -1.7e-05 6.648392 -0.320898 -0.812328 3.288402 -0.619002 -1.633326 2.970417 -0.628716 -1.629557 -2.683319 5.233218 -0.905768 -18.325363 -11.542507 4.734045 174.281456 -82.244705 4.230148 -17.344007 60.320809 42.133644 -30.104257 -12.780857 1.088851 13.907875 -1.671733 -12.489769 172.381885 76.614328 -6.352484 -3.045717 -62.339512 -11.758606 -46.368812 9.888794 -1.327555 1.243959 1.043651 -14.748023 
276.244293 89.344193 447.675507 90.375267 1.468814 0.463013 171.62107 4.416503 167.088229 -28.93334 0.849288 -6.559357 91.293121 4.550668 1.151733 21.454553 0.003092 -1e-06 150.449683 2.023407 179.084828 -57.624469 -4.207438 7.63259 80.703698 -2.384908 12.267911 21.454551 -0.003109 -1.7e-05 6.663808 -0.158245 -1.05969 3.317446 -0.286577 -2.123416 2.999592 -0.299255 -2.121646 -2.802286 6.570787 -1.094263 -18.390235 -12.395082 5.210805 173.41211 -82.612545 5.099032 -17.6492 59.978172 42.504916 -33.545702 -14.98864 1.301956 13.357254 -2.451824 -11.24057 174.106972 75.755909 -4.616481 -2.630433 -61.575713 -11.110716 -46.865995 9.815493 -1.337532 1.288013 0.58919 -14.048632 
274.084106 89.26725 447.865997 90.447756 1.116146 1.219116 173.568508 4.3463 167.617623 -27.832363 0.873414 -6.319835 92.281818 4.351074 1.015352 21.454555 0.00309 -0.0 149.484127 1.315705 179.832392 -50.594712 -3.721069 6.065823 80.013972 -1.287844 12.063522 21.45456 -0.003107 -1.8e-05 6.651641 -0.000249 -1.268643 3.290085 0.034946 -2.536779 2.972306 0.019767 -2.536941 -2.958368 7.655469 -1.213542 -18.620438 -12.935913 5.60535 173.071338 -82.926262 5.434351 -18.089029 59.653206 42.214537 -37.220286 -16.946627 1.513841 12.734205 -3.987247 -9.802799 175.271301 74.953226 -3.448008 -2.251074 -60.935423 -10.75067 -46.131634 9.720562 -1.309288 1.011966 2.084204 -12.73196 
271.868896 89.15847 448.057312 90.70606 0.944121 2.057312 175.441509 4.500395 168.502324 -26.517817 0.89366 -6.262148 93.005074 4.265399 0.770393 21.454548 0.003096 1e-06 149.079547 1.083801 -178.924059 -42.280917 -3.491887 3.642103 78.154016 0.726469 12.505321 21.454557 -0.00311 -1.7e-05 6.580946 0.131762 -1.459385 3.145245 0.302411 -2.91472 2.827575 0.284948 -2.916489 -3.075599 8.416113 -1.279576 -18.885232 -13.273791 5.902479 173.036053 -83.233921 5.46075 -18.861902 59.548629 40.954159 -40.569483 -18.38503 1.693814 11.916558 -5.346146 -8.408782 176.176288 74.429637 -2.535139 -1.88639 -60.640974 -10.556373 -44.162661 9.603955 -1.244382 0.765688 4.562536 -11.671308 
269.678711 89.229591 448.253815 91.219246 0.380128 3.074829 177.283147 4.349196 169.835878 -24.595982 0.956188 -6.332942 93.277947 4.270695 0.482342 21.454551 0.003097 1e-06 149.17905 0.610306 -177.301698 -32.472092 -3.266642 1.181823 74.560954 2.64219 11.71605 21.454557 -0.003108 -1.8e-05 6.440702 0.347154 -1.625627 2.858271 0.733509 -3.242418 2.540684 0.714062 -3.24678 -3.249772 8.996807 -1.342855 -19.039965 -13.603491 6.147425 173.019702 -83.525823 5.46858 -20.207055 59.721576 38.883437 -43.2767 -19.330798 1.83149 11.059384 -5.892812 -7.246153 177.151994 74.136444 -1.542491 -1.447042 -60.605095 -10.562728 -41.378263 9.504797 -1.16106 1.098136 6.719807 -11.048478 
267.492615 89.230652 448.427887 91.869173 -0.086606 4.455322 178.916286 4.172196 171.242938 -22.786884 1.02733 -6.238145 93.651333 4.174131 0.244641 21.454555 0.003089 -0.0 149.950943 0.278595 -176.475218 -21.765154 -2.980433 -0.431661 70.606363 4.176119 11.53453 21.454555 -0.003109 -1.7e-05 6.26643 0.535508 -1.798918 2.502825 1.108817 -3.586276 2.185327 1.087289 -3.592893 -3.59569 9.50468 -1.480025 -19.104971 -13.945598 6.309097 172.133635 -83.779906 6.355474 -22.149129 59.960072 36.482906 -45.277058 -19.938321 1.930747 10.363748 -5.778259 -6.096011 178.467474 73.918664 -0.19861 -0.625145 -60.628406 -11.161487 -38.334703 9.459444 -1.079812 2.197339 7.654924 -10.569049 
265.198212 88.9627 448.565887 92.357203 -6.9e-05 6.244079 -179.612624 4.201293 172.411679 -21.883793 0.99387 -5.762953 94.438328 3.82779 0.022291 21.454551 0.003093 0.0 151.179667 0.445907 -177.394042 -12.358059 -2.867013 -0.201792 69.11243 4.507563 12.505039 21.454557 -0.003108 -1.8e-05 6.14716 0.59277 -1.973824 2.260605 1.222872 -3.936232 1.943247 1.199235 -3.943528 -4.217959 9.980155 -1.753367 -19.175942 -14.20327 6.321514 169.673155 -84.006484 8.83109 -24.808736 60.035689 34.005073 -46.583826 -20.321732 1.9963 9.848517 -5.560402 -4.767702 179.997997 73.609188 1.365322 0.798463 -60.490621 -12.723937 -35.43191 9.40609 -1.007336 3.751717 7.204873 -9.914003 
262.673401 88.30777 448.663788 92.425778 0.752568 8.159791 -178.125856 4.403795 173.088946 -22.367442 0.763006 -4.897652 95.798751 3.213516 -0.323574 21.454551 0.003088 -1e-06 150.727959 1.422899 -179.345167 -10.5408 -2.696281 2.340578 71.68429 2.436398 12.835088 21.454562 -0.003109 -1.7e-05 6.159356 0.502366 -2.101418 2.286884 1.044987 -4.192939 1.969659 1.019807 -4.199156 -5.026384 10.37264 -2.10898 -19.433913 -14.314942 6.223338 166.614009 -84.160744 11.911315 -28.230873 59.793095 31.586835 -47.127219 -20.492861 2.024701 9.464305 -5.627671 -3.615513 -179.00471 73.173674 2.381048 2.814105 -60.080666 -15.395859 -32.734836 9.244147 -0.937733 5.218233 5.777903 -8.976446 
